<?xml version="1.0" standalone="no"?><!DOCTYPE svg PUBLIC "-//W3C//DTD SVG 1.1//EN" "http://www.w3.org/Graphics/SVG/1.1/DTD/svg11.dtd"><svg t="1628861384871" class="icon" viewBox="0 0 1024 1024" version="1.1" xmlns="http://www.w3.org/2000/svg" p-id="840" width="22" height="22" xmlns:xlink="http://www.w3.org/1999/xlink"><defs><style type="text/css"></style></defs><path d="M64 64v896h896V64H64z m0-64h896a64 64 0 0 1 64 64v896a64 64 0 0 1-64 64H64a64 64 0 0 1-64-64V64a64 64 0 0 1 64-64z m416 205.312V846.08a32 32 0 1 0 64 0V205.312a32 32 0 1 0-64 0z m268.032 260.48a32 32 0 0 0 45.248-45.248L512 139.264 230.72 420.544a32 32 0 0 0 45.248 45.248L512 229.76l236.032 236.032z" p-id="841" fill="#ffffff"></path></svg>