<?xml version="1.0" encoding="UTF-8"?>
<svg width="18px" height="18px" viewBox="0 0 18 18" version="1.1" xmlns="http://www.w3.org/2000/svg"
     xmlns:xlink="http://www.w3.org/1999/xlink">
    <path d="M13.949194,2.40913246 C10.7576998,-0.780851127 5.58486737,-0.780851127 2.39337313,2.40913246 C0.860937608,3.94126683 -1.02671023e-06,6.01946773 -1.02671023e-06,8.1864459 C-1.02671023e-06,10.3534241 0.860937608,12.431625 2.39337313,13.9637593 C5.43956949,17.0115249 10.3295252,17.1683212 13.5647164,14.3219683 L17.1706866,17.9279384 L17.9109851,17.1876399 L14.307403,13.5864459 C17.1525779,10.3490368 16.9958426,5.45889505 13.949194,2.41032649 L13.949194,2.40913246 Z M14.7718806,10.870028 C14.4136716,11.7536101 13.8859104,12.5464459 13.2053134,13.2246549 C11.8722859,14.5638443 10.0596342,15.3152114 8.17008955,15.3118586 C6.27996521,15.3181432 4.46622867,14.5663264 3.13486567,13.2246549 C2.46073913,12.5526763 1.92806862,11.7524525 1.5682985,10.871222 C1.22312213,10.0197419 1.04632689,9.10940858 1.04766192,8.19062499 C1.0413773,6.30050066 1.79319411,4.48676411 3.13486567,3.15540112 C3.80684423,2.48127458 4.60706798,1.94860407 5.48829851,1.58883395 C6.33997912,1.24265938 7.2507441,1.06504804 8.17008955,1.06584618 C9.0966567,1.06584618 9.99695522,1.24137126 10.8518806,1.58763993 C11.7342687,1.94584889 12.5271045,2.47241605 13.2053134,3.15301307 C14.544797,4.48633223 15.2961886,6.29947263 15.2925013,8.18943098 C15.2948554,9.10831003 15.1180229,10.0188348 14.7718806,10.870028 L14.7718806,10.870028 Z M12.2882985,8.76495336 L8.62262687,8.76495336 L8.62262687,12.430625 L7.57546268,12.430625 L7.57546268,8.76495336 L3.90979105,8.76495336 L3.90979105,7.71898321 L7.57546268,7.71898321 L7.57546268,4.05331156 L8.62262687,4.05331156 L8.62262687,7.71898321 L12.2882985,7.71898321 L12.2882985,8.76614739 L12.2882985,8.76495336 Z"
          id="形状"></path>
</svg>
