<?xml version="1.0" encoding="UTF-8"?>
<svg width="18px" height="18px" viewBox="0 0 18 18" version="1.1" xmlns="http://www.w3.org/2000/svg"
     xmlns:xlink="http://www.w3.org/1999/xlink">
    <path d="M14.0000269,2.40217747 C10.7971685,-0.798320761 5.60681191,-0.798320761 2.40395354,2.40217747 C0.866223444,3.9394278 0.00229532687,6.02467465 0.00229532687,8.19901419 C0.00229532687,10.3733537 0.866223444,12.4586006 2.40395354,13.9958509 C5.46052327,17.0541 10.367162,17.2116671 13.6136511,14.3558284 L17.2314243,17.9736016 L17.9753777,17.2296483 L14.3600043,13.6178746 C17.2160147,10.3691923 17.058483,5.46102987 14.0000269,2.40217747 L14.0000269,2.40217747 Z M14.8243752,10.8928454 C14.4643977,11.7783899 13.9364308,12.57394 13.2524737,13.2542974 C11.9152024,14.5981652 10.0966452,15.3523696 8.20079026,15.349375 C7.27825175,15.3507106 6.3642166,15.1730381 5.50935893,14.8261989 C4.62428009,14.4668014 3.82102826,13.9321165 3.14790692,13.2542974 C2.47151195,12.5800064 1.93703156,11.7770618 1.57600542,10.8928454 C1.22957689,10.0379058 1.05231249,9.1238735 1.0539911,8.20141404 C1.04713297,6.30490801 1.80092925,4.4848185 3.14670698,3.1485307 C3.82099801,2.47213573 4.6239426,1.93765534 5.50815901,1.57662919 C6.36355456,1.23045893 7.27800628,1.05359973 8.20079026,1.0558404 C9.13073198,1.0558404 10.0342754,1.23225077 10.8910217,1.57902905 C11.7765662,1.93900649 12.5733162,2.46697341 13.2536736,3.15093053 C14.5971012,4.48839945 15.3508635,6.30693212 15.3475655,8.20261397 C15.3498964,9.12524866 15.1721864,10.0394766 14.8243752,10.8940453 L14.8243752,10.8928454 Z M12.3333313,8.78097772 L3.92665811,8.78097772 L3.92665811,7.72864367 L12.3345312,7.72864367 L12.3345312,8.7797778 L12.3333313,8.78097772 Z"
          id="形状"></path>
</svg>
